<svg xmlns="http://www.w3.org/2000/svg" width="700" height="200" viewBox="0 0 700 200"><style>* {
          font-family: 'Segoe UI', Ubuntu, "Helvetica Neue", Sans-Serif
        }</style><g class="gpsc-root"><rect x="1" y="1" rx="5" ry="5" height="99%" width="99.71428571428571%" stroke="#141321" stroke-width="1" fill="#141321" stroke-opacity="1"></rect><text x="30" y="40" class="gpsc-item" style="--gpsc-i: 0; font-size: 22px; fill: #ff0055;">octocat (Mona Lisa)</text><g transform="translate(0,40)"><g transform="translate(30,30)"><g class="gpsc-item" style="--gpsc-i: 0;"><g transform="translate(0,0)" width="14" height="14" fill="#fcee0c"><path fill-rule="evenodd" d="M2 2.5A2.5 2.5 0 014.5 0h8.75a.75.75 0 01.75.75v12.5a.75.75 0 01-.75.75h-2.5a.75.75 0 110-1.5h1.75v-2h-8a1 1 0 00-.714 1.7.75.75 0 01-1.072 1.05A2.495 2.495 0 012 11.5v-9zm10.5-1V9h-8c-.356 0-.694.074-1 .208V2.5a1 1 0 011-1h8zM5 12.25v3.25a.25.25 0 00.4.2l1.45-1.087a.25.25 0 01.3 0L8.6 15.7a.25.25 0 00.4-.2v-3.25a.25.25 0 00-.25-.25h-3.5a.25.25 0 00-.25.25z"></path></g></g><g class="gpsc-item" style="--gpsc-i: 1;"><g transform="translate(0,28)" width="14" height="14" fill="#fcee0c"><path fill-rule="evenodd" d="M1.75 2A1.75 1.75 0 000 3.75v.736a.75.75 0 000 .027v7.737C0 13.216.784 14 1.75 14h12.5A1.75 1.75 0 0016 12.25v-8.5A1.75 1.75 0 0014.25 2H1.75zM14.5 4.07v-.32a.25.25 0 00-.25-.25H1.75a.25.25 0 00-.25.25v.32L8 7.88l6.5-3.81zm-13 1.74v6.441c0 .138.112.25.25.25h12.5a.25.25 0 00.25-.25V5.809L8.38 9.397a.75.75 0 01-.76 0L1.5 5.809z"></path></g></g><g class="gpsc-item" style="--gpsc-i: 2;"><g transform="translate(0,56)" width="14" height="14" fill="#fcee0c"><path fill-rule="evenodd" d="M11.536 3.464a5 5 0 010 7.072L8 14.07l-3.536-3.535a5 5 0 117.072-7.072v.001zm1.06 8.132a6.5 6.5 0 10-9.192 0l3.535 3.536a1.5 1.5 0 002.122 0l3.535-3.536zM8 9a2 2 0 100-4 2 2 0 000 4z"></path></g></g><g class="gpsc-item" style="--gpsc-i: 3;"><g transform="translate(0,84)" width="14" height="14" fill="#fcee0c"><path fill-rule="evenodd" d="M7.775 3.275a.75.75 0 001.06 1.06l1.25-1.25a2 2 0 112.83 2.83l-2.5 2.5a2 2 0 01-2.83 0 .75.75 0 00-1.06 1.06 3.5 3.5 0 004.95 0l2.5-2.5a3.5 3.5 0 00-4.95-4.95l-1.25 1.25zm-4.69 9.64a2 2 0 010-2.83l2.5-2.5a2 2 0 012.83 0 .75.75 0 001.06-1.06 3.5 3.5 0 00-4.95 0l-2.5 2.5a3.5 3.5 0 004.95 4.95l1.25-1.25a.75.75 0 00-1.06-1.06l-1.25 1.25a2 2 0 01-2.83 0z"></path></g></g><text x="21" y="14" class="gpsc-item" style="--gpsc-i: 0; fill: #03d8f3; font-size: 14px;">42 Public Repos</text><text x="21" y="42" class="gpsc-item" style="--gpsc-i: 1; fill: #03d8f3; font-size: 14px;">octocat@example.com</text><text x="21" y="70" class="gpsc-item" style="--gpsc-i: 2; fill: #03d8f3; font-size: 14px;">Internet</text><text x="21" y="98" class="gpsc-item" style="--gpsc-i: 3; fill: #03d8f3; font-size: 14px;">example.com</text></g><g color="#00ffc8" transform="translate(295,10)"><clipPath id="gpsc-reveal-clip"><rect class="gpsc-reveal" x="-30" y="0" width="410" height="110" style="--gpsc-w: 410px; --gpsc-i: 4;"></rect></clipPath><g clip-path="url(#gpsc-reveal-clip)" class="gpsc-chart" style="--gpsc-i: 4;"><path transform="translate(-30,0)" stroke="#00ffc8" fill="#00ffc8" opacity="1" d="M0,44C11.756487025948104,35.41385189669088,23.512974051896208,26.827703793381765,35.26946107784431,19.800000000000004C45.88822355289421,13.452396573719707,56.506986027944116,4.624731182795703,67.12574850299401,3.300000000000003C78.88223552894212,1.833333333333335,90.63872255489022,1.100000000000001,102.39520958083833,1.100000000000001C113.77245508982035,1.100000000000001,125.1497005988024,7.660056407544509,136.52694610778443,13.2C148.28343313373253,18.924608378870673,160.03992015968063,27.164790528233144,171.79640718562874,35.199999999999996C183.17365269461078,42.97600916622598,194.5508982035928,53.07301251542395,205.92814371257484,60.50000000000001C217.68463073852294,68.17455373406194,229.44111776447107,75.71666666666667,241.19760479041918,80.3C252.95409181636728,84.88333333333333,264.7105788423154,88,276.4670658682635,88C287.8443113772455,88,299.2215568862276,84.57105587872377,310.5988023952096,80.3C322.3552894211577,75.88657559198543,334.1117764471058,69.09422586520948,345.8682634730539,61.60000000000001C357.2455089820359,54.34752335624891,368.622754491018,45.323761678124455,380,36.3L380,110C368.622754491018,110,357.2455089820359,110,345.8682634730539,110C334.1117764471058,110,322.3552894211577,110,310.5988023952096,110C299.2215568862276,110,287.8443113772455,110,276.4670658682635,110C264.7105788423154,110,252.95409181636728,110,241.19760479041918,110C229.44111776447107,110,217.68463073852294,110,205.92814371257484,110C194.5508982035928,110,183.17365269461078,110,171.79640718562874,110C160.03992015968063,110,148.28343313373253,110,136.52694610778443,110C125.1497005988024,110,113.77245508982035,110,102.39520958083833,110C90.63872255489022,110,78.88223552894212,110,67.12574850299401,110C56.506986027944116,110,45.88822355289421,110,35.26946107784431,110C23.512974051896208,110,11.756487025948104,110,0,110Z"></path></g><g color="#03d8f3" transform="translate(-30,110)" fill="none" font-size="10" font-family="sans-serif" text-anchor="middle"><path class="domain" stroke="currentColor" d="M0.5,6V0.5H380.5V6"></path><g class="tick" opacity="1" transform="translate(0.5,0)"><line stroke="currentColor" y2="6"></line><text fill="currentColor" y="9" dy="0.71em">25/01</text></g><g class="tick" opacity="1" transform="translate(67.62574850299401,0)"><line stroke="currentColor" y2="6"></line><text fill="currentColor" y="9" dy="0.71em">25/03</text></g><g class="tick" opacity="1" transform="translate(137.02694610778443,0)"><line stroke="currentColor" y2="6"></line><text fill="currentColor" y="9" dy="0.71em">25/05</text></g><g class="tick" opacity="1" transform="translate(206.42814371257484,0)"><line stroke="currentColor" y2="6"></line><text fill="currentColor" y="9" dy="0.71em">25/07</text></g><g class="tick" opacity="1" transform="translate(276.9670658682635,0)"><line stroke="currentColor" y2="6"></line><text fill="currentColor" y="9" dy="0.71em">25/09</text></g><g class="tick" opacity="1" transform="translate(346.3682634730539,0)"><line stroke="currentColor" y2="6"></line><text fill="currentColor" y="9" dy="0.71em">25/11</text></g></g><g color="#03d8f3" transform="translate(350,0)" fill="none" font-size="10" font-family="sans-serif" text-anchor="start"><path class="domain" stroke="currentColor" d="M6,110.5H0.5V0.5H6"></path><g class="tick" opacity="1" transform="translate(0,110.5)"><line stroke="currentColor" x2="6"></line><text fill="currentColor" x="9" dy="0.32em">0</text></g><g class="tick" opacity="1" transform="translate(0,99.5)"><line stroke="currentColor" x2="6"></line><text fill="currentColor" x="9" dy="0.32em">10</text></g><g class="tick" opacity="1" transform="translate(0,88.5)"><line stroke="currentColor" x2="6"></line><text fill="currentColor" x="9" dy="0.32em">20</text></g><g class="tick" opacity="1" transform="translate(0,77.5)"><line stroke="currentColor" x2="6"></line><text fill="currentColor" x="9" dy="0.32em">30</text></g><g class="tick" opacity="1" transform="translate(0,66.5)"><line stroke="currentColor" x2="6"></line><text fill="currentColor" x="9" dy="0.32em">40</text></g><g class="tick" opacity="1" transform="translate(0,55.5)"><line stroke="currentColor" x2="6"></line><text fill="currentColor" x="9" dy="0.32em">50</text></g><g class="tick" opacity="1" transform="translate(0,44.5)"><line stroke="currentColor" x2="6"></line><text fill="currentColor" x="9" dy="0.32em">60</text></g><g class="tick" opacity="1" transform="translate(0,33.50000000000001)"><line stroke="currentColor" x2="6"></line><text fill="currentColor" x="9" dy="0.32em">70</text></g><g class="tick" opacity="1" transform="translate(0,22.499999999999996)"><line stroke="currentColor" x2="6"></line><text fill="currentColor" x="9" dy="0.32em">80</text></g><g class="tick" opacity="1" transform="translate(0,11.499999999999998)"><line stroke="currentColor" x2="6"></line><text fill="currentColor" x="9" dy="0.32em">90</text></g><g class="tick" opacity="1" transform="translate(0,0.5)"><line stroke="currentColor" x2="6"></line><text fill="currentColor" x="9" dy="0.32em">100</text></g></g><g><text y="-15" x="230" style="fill: #03d8f3; font-size: 10px;">contributions in the last year</text></g></g></g></g></svg>