<svg xmlns="http://www.w3.org/2000/svg" width="340" height="200" viewBox="0 0 340 200"><style>* {
          font-family: 'Segoe UI', Ubuntu, "Helvetica Neue", Sans-Serif
        }</style><g class="gpsc-root"><rect x="1" y="1" rx="5" ry="5" height="99%" width="99.41176470588235%" stroke="#e5e9f0" stroke-width="1" fill="#eceff4" stroke-opacity="1"></rect><text x="30" y="40" class="gpsc-item" style="--gpsc-i: 0; font-size: 22px; fill: #3b4252;">Most Commit Language</text><g transform="translate(0,40)"><g transform="translate(40,0)"><rect y="18" width="14" height="14" class="gpsc-item" style="--gpsc-i: 0; stroke-width: 1px;" fill="#3178c6" stroke="#eceff4"></rect><rect y="43.2" width="14" height="14" class="gpsc-item" style="--gpsc-i: 1; stroke-width: 1px;" fill="#f1e05a" stroke="#eceff4"></rect><rect y="68.4" width="14" height="14" class="gpsc-item" style="--gpsc-i: 2; stroke-width: 1px;" fill="#00add8" stroke="#eceff4"></rect><rect y="93.60000000000002" width="14" height="14" class="gpsc-item" style="--gpsc-i: 3; stroke-width: 1px;" fill="#3572a5" stroke="#eceff4"></rect><rect y="118.80000000000001" width="14" height="14" class="gpsc-item" style="--gpsc-i: 4; stroke-width: 1px;" fill="#dea584" stroke="#eceff4"></rect><text x="16.8" y="30" class="gpsc-item" style="--gpsc-i: 0; fill: #2e3440; font-size: 14px;">TypeScript</text><text x="16.8" y="55.2" class="gpsc-item" style="--gpsc-i: 1; fill: #2e3440; font-size: 14px;">JavaScript</text><text x="16.8" y="80.4" class="gpsc-item" style="--gpsc-i: 2; fill: #2e3440; font-size: 14px;">Go</text><text x="16.8" y="105.60000000000002" class="gpsc-item" style="--gpsc-i: 3; fill: #2e3440; font-size: 14px;">Python</text><text x="16.8" y="130.8" class="gpsc-item" style="--gpsc-i: 4; fill: #2e3440; font-size: 14px;">Rust</text></g><g transform="translate( 230, 80 )"><g class="arc" style="--gpsc-i: 0;"><path d="M3.67394039744206e-15,-60A60,60,0,0,1,30.268971806918387,51.80530229379981L17.656900220702394,30.219759671383223A35,35,0,0,0,2.1431318985078682e-15,-35Z" style="fill: #3178c6; stroke-width: 2px;" stroke="#eceff4"></path></g><g class="arc" style="--gpsc-i: 1;"><path d="M30.268971806918387,51.80530229379981A60,60,0,0,1,-53.160681568098894,27.819811919119633L-31.01039758139102,16.228223619486453A35,35,0,0,0,17.656900220702394,30.219759671383223Z" style="fill: #f1e05a; stroke-width: 2px;" stroke="#eceff4"></path></g><g class="arc" style="--gpsc-i: 2;"><path d="M-53.160681568098894,27.819811919119633A60,60,0,0,1,-54.000159124111796,-26.153065108522288L-31.500092822398546,-15.255954646638001A35,35,0,0,0,-31.01039758139102,16.228223619486453Z" style="fill: #00add8; stroke-width: 2px;" stroke="#eceff4"></path></g><g class="arc" style="--gpsc-i: 3;"><path d="M-54.000159124111796,-26.153065108522288A60,60,0,0,1,-25.31010192372372,-54.40035607062436L-14.76422612217217,-31.733541041197544A35,35,0,0,0,-31.500092822398546,-15.255954646638001Z" style="fill: #3572a5; stroke-width: 2px;" stroke="#eceff4"></path></g><g class="arc" style="--gpsc-i: 4;"><path d="M-25.31010192372372,-54.40035607062436A60,60,0,0,1,-1.1021821192326178e-14,-60L-6.429395695523604e-15,-35A35,35,0,0,0,-14.76422612217217,-31.733541041197544Z" style="fill: #dea584; stroke-width: 2px;" stroke="#eceff4"></path></g></g></g></g></svg>